<svg width="112" height="123" viewBox="0 0 112 123" fill="none" xmlns="http://www.w3.org/2000/svg">
<path d="M56 61.5C53.0534 61.5 50.1069 60.9258 47.81 59.7775L15.435 43.5641C13.9541 42.8242 10.5 40.6597 10.5 36.5733C10.5 32.4869 13.9541 30.3272 15.4394 29.5777L48.0944 13.2249C52.5941 10.9667 59.3841 10.9667 63.8859 13.2249L96.5606 29.5777C98.0459 30.32 101.5 32.4845 101.5 36.5733C101.5 40.6621 98.0459 42.8194 96.5606 43.5665L64.1856 59.7775C61.8931 60.9258 58.9466 61.5 56 61.5Z" fill="white"/>
<path d="M96.5475 54.4876L93.2466 52.8516L84.7656 57.1133L64.2031 67.4434C61.9062 68.5965 58.9531 69.1707 56.0131 69.1707C53.0731 69.1707 50.1222 68.5965 47.8275 67.4434L27.2497 57.1133L18.7666 52.8516L15.4372 54.4948C13.9541 55.2371 10.5 57.416 10.5 61.5C10.5 65.584 13.9541 67.7653 15.435 68.5076L47.81 84.7547C50.0937 85.9078 53.0447 86.4844 56 86.4844C58.9553 86.4844 61.8931 85.9078 64.19 84.7571L96.5366 68.5148C98.0262 67.7725 101.5 65.6056 101.5 61.5C101.5 57.3944 98.0503 55.2371 96.5475 54.4876Z" fill="white"/>
<path d="M96.5475 79.4695L93.2466 77.8359L84.7656 82.0953L64.2031 92.4134C61.9062 93.5617 58.9531 94.1382 56.0131 94.1382C53.0731 94.1382 50.1222 93.5641 47.8275 92.4134L27.2497 82.0833L18.7666 77.8359L15.4372 79.4791C13.9541 80.2215 10.5 82.4004 10.5 86.4844C10.5 90.5684 13.9541 92.7473 15.435 93.4872L47.81 109.725C50.0937 110.873 53.0556 111.469 56 111.469C58.9444 111.469 61.88 110.873 64.1769 109.722L96.5344 93.4896C98.0262 92.7497 101.5 90.5828 101.5 86.4844C101.5 82.386 98.0503 80.2215 96.5475 79.4695Z" fill="white"/>
</svg>
