<svg width="218" height="218" viewBox="0 0 218 218" fill="none" xmlns="http://www.w3.org/2000/svg">
<path fill-rule="evenodd" clip-rule="evenodd" d="M0 109C0 48.801 48.801 0 109 0C169.199 0 218 48.801 218 109C218 169.199 169.199 218 109 218C48.801 218 0 169.199 0 109ZM172.575 86.2492C176.436 82.3711 176.422 76.0971 172.544 72.2357L165.522 65.244C161.644 61.3827 155.371 61.3961 151.509 65.2743L94.3177 122.712L61.4089 90.2609C57.5122 86.4189 51.2382 86.4628 47.3957 90.36L40.4382 97.4153C36.5957 101.312 36.6397 107.586 40.5364 111.429L87.4886 157.727C91.3717 161.557 97.6194 161.528 101.468 157.664L172.575 86.2492Z" fill="white"/>
</svg>
