<svg width="8" height="15" viewBox="0 0 8 15" fill="none" xmlns="http://www.w3.org/2000/svg">
<path d="M4.69278 3.56467C4.69278 3.71819 4.69278 4.21855 4.69278 4.92941H7.29978L7.01712 7.10813H4.69278C4.69278 10.4681 4.69278 14.9707 4.69278 14.9707H1.60759C1.60759 14.9707 1.60759 10.5277 1.60759 7.10813H0V4.92941H1.60759C1.60759 4.06539 1.60759 3.451 1.60759 3.27994C1.60759 2.4649 1.54209 2.07818 1.9115 1.4466C2.28109 0.815044 3.32359 -0.0197416 5.12669 0.000356098C6.93022 0.0211862 7.69044 0.183842 7.69044 0.183842L7.29978 2.50582C7.29978 2.50582 6.14812 2.22074 5.58284 2.32234C5.01831 2.42397 4.69278 2.74998 4.69278 3.56467Z" fill="#737373"/>
</svg>
