<svg width="16" height="15" viewBox="0 0 16 15" fill="none" xmlns="http://www.w3.org/2000/svg">
<g clip-path="url(#clip0_127_78)">
<g clip-path="url(#clip1_127_78)">
<path fill-rule="evenodd" clip-rule="evenodd" d="M8.5 11.25C10.5711 11.25 12.25 9.57106 12.25 7.5C12.25 5.42893 10.5711 3.75 8.5 3.75C6.42893 3.75 4.75 5.42893 4.75 7.5C4.75 9.57106 6.42893 11.25 8.5 11.25ZM8.5 10C9.88069 10 11 8.88069 11 7.5C11 6.11929 9.88069 5 8.5 5C7.11929 5 6 6.11929 6 7.5C6 8.88069 7.11929 10 8.5 10Z" fill="#737373"/>
<path d="M12.25 3.125C11.9048 3.125 11.625 3.40482 11.625 3.75C11.625 4.09518 11.9048 4.375 12.25 4.375C12.5952 4.375 12.875 4.09518 12.875 3.75C12.875 3.40482 12.5952 3.125 12.25 3.125Z" fill="#737373"/>
<path fill-rule="evenodd" clip-rule="evenodd" d="M2.03372 2.67254C1.625 3.47471 1.625 4.52481 1.625 6.625V8.375C1.625 10.4752 1.625 11.5253 2.03372 12.3274C2.39325 13.0331 2.96692 13.6067 3.67254 13.9662C4.47471 14.375 5.52481 14.375 7.625 14.375H9.375C11.4752 14.375 12.5253 14.375 13.3274 13.9662C14.0331 13.6067 14.6067 13.0331 14.9662 12.3274C15.375 11.5253 15.375 10.4752 15.375 8.375V6.625C15.375 4.52481 15.375 3.47471 14.9662 2.67254C14.6067 1.96692 14.0331 1.39325 13.3274 1.03372C12.5253 0.625 11.4752 0.625 9.375 0.625H7.625C5.52481 0.625 4.47471 0.625 3.67254 1.03372C2.96692 1.39325 2.39325 1.96692 2.03372 2.67254ZM9.375 1.875H7.625C6.55427 1.875 5.82641 1.87597 5.2638 1.92194C4.71577 1.96671 4.43552 2.04787 4.24002 2.14748C3.76962 2.38717 3.38717 2.76962 3.14748 3.24002C3.04787 3.43552 2.96671 3.71577 2.92194 4.2638C2.87597 4.82641 2.875 5.55427 2.875 6.625V8.375C2.875 9.44575 2.87597 10.1736 2.92194 10.7362C2.96671 11.2842 3.04787 11.5645 3.14748 11.76C3.38717 12.2304 3.76962 12.6128 4.24002 12.8525C4.43552 12.9521 4.71577 13.0333 5.2638 13.0781C5.82641 13.124 6.55427 13.125 7.625 13.125H9.375C10.4457 13.125 11.1736 13.124 11.7362 13.0781C12.2842 13.0333 12.5645 12.9521 12.76 12.8525C13.2304 12.6128 13.6128 12.2304 13.8525 11.76C13.9521 11.5645 14.0333 11.2842 14.0781 10.7362C14.124 10.1736 14.125 9.44575 14.125 8.375V6.625C14.125 5.55427 14.124 4.82641 14.0781 4.2638C14.0333 3.71577 13.9521 3.43552 13.8525 3.24002C13.6128 2.76962 13.2304 2.38717 12.76 2.14748C12.5645 2.04787 12.2842 1.96671 11.7362 1.92194C11.1736 1.87597 10.4457 1.875 9.375 1.875Z" fill="#737373"/>
</g>
</g>
<defs>
<clipPath id="clip0_127_78">
<rect width="16" height="15" fill="white"/>
</clipPath>
<clipPath id="clip1_127_78">
<rect width="15" height="15" fill="white" transform="translate(1)"/>
</clipPath>
</defs>
</svg>
