<svg width="103" height="112" viewBox="0 0 103 112" fill="none" xmlns="http://www.w3.org/2000/svg">
<path d="M48.3967 0V17.7728H54.6039V0H48.3967ZM23.0504 5.341L17.9649 8.80395L28.4449 23.3589L33.5277 19.8959L23.0504 5.341ZM79.9489 5.341L69.4719 19.896L74.5555 23.359L85.0353 8.80395L79.9489 5.341ZM51.499 22.6356C36.3142 22.6356 24.0046 31.6033 24.0046 42.6672L39.6256 88.6757H63.375L78.9947 42.6672C78.9947 31.6035 66.6859 22.6356 51.5004 22.6356H51.499ZM2.12081 27.9695L0 33.6455L17.1639 39.7228L19.2926 34.0495L2.12081 27.9695ZM100.879 27.9695L83.7063 34.05L85.8277 39.7239L103 33.6455L100.879 27.9695ZM18.4634 53.9169L0.814774 58.5207L2.41611 64.3475L20.0647 59.7504L18.4634 53.9169ZM84.5359 53.9169L82.9357 59.7503L100.584 64.3467L102.185 58.5197L84.5359 53.9169ZM39.2794 92.0296V100.027H63.7214V92.0309H39.2795L39.2794 92.0296ZM39.2794 104.003V112H63.7214V104.004H39.2795L39.2794 104.003Z" fill="white"/>
</svg>
