<?xml version="1.0" encoding="UTF-8"?>
<svg id="Camada_2" data-name="Camada 2" xmlns="http://www.w3.org/2000/svg" xmlns:xlink="http://www.w3.org/1999/xlink" viewBox="0 0 786.19 794.64">
  <defs>
    <style>
      .cls-1 {
        fill: #231f20;
      }

      .cls-2 {
        clip-path: url(#clippath-1);
      }

      .cls-3 {
        clip-path: url(#clippath-3);
      }

      .cls-4 {
        clip-path: url(#clippath-2);
      }

      .cls-5 {
        clip-path: url(#clippath);
      }
    </style>
    <clipPath id="clippath">
      <path class="cls-1" d="M365.91,288.67c18.79,18.37,34.97,18.36,54.25.41,18.58-17.29,36.19-35.6,54.28-53.4,59.67-58.73,119.47-117.32,178.97-176.21,17.44-17.27,17.78-34.94,2.16-50.18-13.54-13.21-33.4-12.29-49.95,2.55-6.64,5.96-13.04,12.19-19.34,18.5-63.02,63.09-125.99,126.21-190.51,190.87-7.12-6.01-10.91-8.82-14.24-12.09C315.33,144.28,249.26,79.33,182.99,14.58c-17.86-17.45-38.4-18.85-52.8-4.4-14.64,14.7-13.85,33.03,3.77,50.44,77.11,76.22,154.41,152.25,231.95,228.05Z"/>
    </clipPath>
    <clipPath id="clippath-1">
      <path class="cls-1" d="M786.06,603.17v-.66c0-2.63-.07-5.19-.07-7.76v-151.46c0-13.74,0-27.54.07-41.35v-5.06c-1.2-11.11-10.65-19.66-22.16-19.72h-.33c-15.7,0-31.54.07-47.24.13-16.83.13-33.67.39-50.5.66-18.5.39-30.21,14.92-30.34,32.61-.13,18.27,12.91,32.15,32.07,33.46,8.98.59,17.96.13,26.95.07,7.25-.07,14.57-.13,21.82-.2v19.92l.07,76.52-4.86-4.86-46.24-46.28-10.18-10.26-.47-.39-93.15-93.28c39.99-39.44,79.97-78.75,120.09-118,7.65-7.49,15.57-14.73,24.62-23.01l.47-.46,59.21-57.72,4.99-4.86c4.99-5.98,7.98-13.54,7.98-21.89,0-19.06-15.64-34.51-34.93-34.51-9.65,0-18.3,3.88-24.62,10.12-25.75,25.31-51.56,50.55-77.31,75.86-42.91,42.07-86.09,83.88-128.74,126.22-6.99,6.9-13.97,13.87-20.96,20.84-16.1,16.11-17.56,35.89-6.65,48.71l.33.39,3.59,3.55,229.8,230.02c.27.26.47.53.73.79l3.06,3.09c6.72,6.05,15.64,9.66,25.35,9.66,19.89,0,36.26-15.38,37.52-34.78v-4.54c.13-1.51.13-3.02.13-4.54,0-2.37-.07-4.73-.13-7.03Z"/>
    </clipPath>
    <clipPath id="clippath-2">
      <path class="cls-1" d="M260.35,588.48c-6.79,5.78-12.91,12.36-19.23,18.67-33.67,33.26-67.33,66.53-100.86,99.92-1.53,1.51-2.86,3.09-4.13,4.67l-24.95,24.72c-1.93,1.45-3.66,3.16-5.12,5.06-4.59,5.59-7.32,12.75-7.32,20.44,0,18.01,14.84,32.67,33.07,32.67,8.52,0,16.3-3.22,22.16-8.48l2.26-2.24,34.53-34.12c39.65-38.13,79.11-76.39,117.76-115.5,1.6-1.64,2.99-3.29,4.13-5.06l.07-.07c8.05-12.42,5.12-28-5.79-39.11-12.91-13.08-32-13.94-46.57-1.58Z"/>
    </clipPath>
    <clipPath id="clippath-3">
      <path class="cls-1" d="M645.41,704.87c-152.16-150.41-304.72-300.49-457.15-450.57-41.12-40.49-82.17-80.92-123.29-121.29-11.84-11.7-25.08-20.05-42.51-12.95C5.5,126.9-.56,140.45.04,157.8c.33,8.15.07,16.37.07,24.59.13,143.24.33,286.49.07,429.73,0,17.16,4.26,31.09,21.09,38.52,17.3,7.63,30.74.26,42.71-11.57,9.31-9.14,18.63-18.21,27.94-27.41,28.74-28.46,57.95-56.53,86.09-85.66,14.04-14.53,12.57-34.84-1.26-47.53-12.71-11.7-32.53-11.31-46.84,1.45-9.18,8.28-17.7,17.29-26.61,25.83-10.78,10.39-21.69,20.71-33.67,32.01V236.69c1.46-.92,2.93-1.84,4.32-2.76,7.12,8.02,13.77,16.5,21.36,23.99,139.39,137.19,278.84,274.32,418.29,411.45,28.08,27.54,56.15,55.09,84.3,82.44,6.05,6.05,14.5,9.73,23.75,9.73,18.56,0,33.6-14.86,33.6-33.2,0-9.14-3.73-17.42-9.85-23.47Z"/>
    </clipPath>
  </defs>
  <g id="Layer_1" data-name="Layer 1">
    <g>
      <g>
        <path class="cls-1" d="M365.91,288.67c18.79,18.37,34.97,18.36,54.25.41,18.58-17.29,36.19-35.6,54.28-53.4,59.67-58.73,119.47-117.32,178.97-176.21,17.44-17.27,17.78-34.94,2.16-50.18-13.54-13.21-33.4-12.29-49.95,2.55-6.64,5.96-13.04,12.19-19.34,18.5-63.02,63.09-125.99,126.21-190.51,190.87-7.12-6.01-10.91-8.82-14.24-12.09C315.33,144.28,249.26,79.33,182.99,14.58c-17.86-17.45-38.4-18.85-52.8-4.4-14.64,14.7-13.85,33.03,3.77,50.44,77.11,76.22,154.41,152.25,231.95,228.05Z"/>
        <g class="cls-5">
          <rect class="cls-1" x="115.55" y="-4.27" width="4.37" height="311.3"/>
          <rect class="cls-1" x="119.92" y="-4.27" width="14.39" height="311.3"/>
          <rect class="cls-1" x="134.32" y="-4.27" width="14.39" height="311.3"/>
          <rect class="cls-1" x="148.71" y="-4.27" width="14.39" height="311.3"/>
          <rect class="cls-1" x="163.11" y="-4.27" width="14.39" height="311.3"/>
          <rect class="cls-1" x="177.5" y="-4.27" width="14.39" height="311.3"/>
          <rect class="cls-1" x="191.89" y="-4.27" width="14.39" height="311.3"/>
          <rect class="cls-1" x="206.29" y="-4.27" width="14.39" height="311.3"/>
          <rect class="cls-1" x="220.68" y="-4.27" width="14.39" height="311.3"/>
          <rect class="cls-1" x="235.08" y="-4.27" width="14.39" height="311.3"/>
          <rect class="cls-1" x="249.47" y="-4.27" width="14.39" height="311.3"/>
          <rect class="cls-1" x="263.87" y="-4.27" width="14.39" height="311.3"/>
          <rect class="cls-1" x="278.26" y="-4.27" width="14.39" height="311.3"/>
          <rect class="cls-1" x="292.66" y="-4.27" width="14.39" height="311.3"/>
          <rect class="cls-1" x="307.05" y="-4.27" width="14.39" height="311.3"/>
          <rect class="cls-1" x="321.44" y="-4.27" width="14.39" height="311.3"/>
          <rect class="cls-1" x="335.84" y="-4.27" width="14.39" height="311.3"/>
          <rect class="cls-1" x="350.23" y="-4.27" width="14.39" height="311.3"/>
          <rect class="cls-1" x="364.63" y="-4.27" width="14.39" height="311.3"/>
          <rect class="cls-1" x="379.02" y="-4.27" width="14.39" height="311.3"/>
          <rect class="cls-1" x="393.42" y="-4.27" width="14.39" height="311.3"/>
          <rect class="cls-1" x="407.81" y="-4.27" width="14.39" height="311.3"/>
          <rect class="cls-1" x="422.21" y="-4.27" width="14.39" height="311.3"/>
          <rect class="cls-1" x="436.6" y="-4.27" width="14.39" height="311.3"/>
          <rect class="cls-1" x="450.99" y="-4.27" width="14.39" height="311.3"/>
          <rect class="cls-1" x="465.39" y="-4.27" width="14.39" height="311.3"/>
          <rect class="cls-1" x="479.78" y="-4.27" width="14.39" height="311.3"/>
          <rect class="cls-1" x="494.18" y="-4.27" width="14.39" height="311.3"/>
          <rect class="cls-1" x="508.57" y="-4.27" width="14.39" height="311.3"/>
          <rect class="cls-1" x="522.97" y="-4.27" width="14.39" height="311.3"/>
          <rect class="cls-1" x="537.36" y="-4.27" width="14.39" height="311.3"/>
          <rect class="cls-1" x="551.75" y="-4.27" width="14.39" height="311.3"/>
          <rect class="cls-1" x="566.15" y="-4.27" width="14.39" height="311.3"/>
          <rect class="cls-1" x="580.54" y="-4.27" width="14.39" height="311.3"/>
          <rect class="cls-1" x="594.94" y="-4.27" width="14.39" height="311.3"/>
          <rect class="cls-1" x="609.33" y="-4.27" width="14.39" height="311.3"/>
          <rect class="cls-1" x="623.73" y="-4.27" width="14.39" height="311.3"/>
          <rect class="cls-1" x="638.12" y="-4.27" width="14.39" height="311.3"/>
          <rect class="cls-1" x="652.52" y="-4.27" width="14.39" height="311.3"/>
          <rect class="cls-1" x="666.91" y="-4.27" width="4.28" height="311.3"/>
        </g>
      </g>
      <g>
        <path class="cls-1" d="M786.06,603.17v-.66c0-2.63-.07-5.19-.07-7.76v-151.46c0-13.74,0-27.54.07-41.35v-5.06c-1.2-11.11-10.65-19.66-22.16-19.72h-.33c-15.7,0-31.54.07-47.24.13-16.83.13-33.67.39-50.5.66-18.5.39-30.21,14.92-30.34,32.61-.13,18.27,12.91,32.15,32.07,33.46,8.98.59,17.96.13,26.95.07,7.25-.07,14.57-.13,21.82-.2v19.92l.07,76.52-4.86-4.86-46.24-46.28-10.18-10.26-.47-.39-93.15-93.28c39.99-39.44,79.97-78.75,120.09-118,7.65-7.49,15.57-14.73,24.62-23.01l.47-.46,59.21-57.72,4.99-4.86c4.99-5.98,7.98-13.54,7.98-21.89,0-19.06-15.64-34.51-34.93-34.51-9.65,0-18.3,3.88-24.62,10.12-25.75,25.31-51.56,50.55-77.31,75.86-42.91,42.07-86.09,83.88-128.74,126.22-6.99,6.9-13.97,13.87-20.96,20.84-16.1,16.11-17.56,35.89-6.65,48.71l.33.39,3.59,3.55,229.8,230.02c.27.26.47.53.73.79l3.06,3.09c6.72,6.05,15.64,9.66,25.35,9.66,19.89,0,36.26-15.38,37.52-34.78v-4.54c.13-1.51.13-3.02.13-4.54,0-2.37-.07-4.73-.13-7.03Z"/>
        <g class="cls-2">
          <rect class="cls-1" x="474.75" y="124.8" width="3.88" height="529.26"/>
          <rect class="cls-1" x="478.63" y="124.8" width="2.15" height="529.26"/>
          <rect class="cls-1" x="480.78" y="124.8" width="2.15" height="529.26"/>
          <rect class="cls-1" x="482.93" y="124.8" width="2.15" height="529.26"/>
          <rect class="cls-1" x="485.08" y="124.8" width="2.15" height="529.26"/>
          <rect class="cls-1" x="487.23" y="124.8" width="2.15" height="529.26"/>
          <rect class="cls-1" x="489.38" y="124.8" width="2.15" height="529.26"/>
          <rect class="cls-1" x="491.54" y="124.8" width="2.15" height="529.26"/>
          <rect class="cls-1" x="493.69" y="124.8" width="2.15" height="529.26"/>
          <rect class="cls-1" x="495.84" y="124.8" width="2.15" height="529.26"/>
          <rect class="cls-1" x="497.99" y="124.8" width="2.15" height="529.26"/>
          <rect class="cls-1" x="500.14" y="124.8" width="2.15" height="529.26"/>
          <rect class="cls-1" x="502.29" y="124.8" width="2.15" height="529.26"/>
          <rect class="cls-1" x="504.44" y="124.8" width="2.15" height="529.26"/>
          <rect class="cls-1" x="506.59" y="124.8" width="2.15" height="529.26"/>
          <rect class="cls-1" x="508.74" y="124.8" width="2.15" height="529.26"/>
          <rect class="cls-1" x="510.89" y="124.8" width="2.15" height="529.26"/>
          <rect class="cls-1" x="513.04" y="124.8" width="2.15" height="529.26"/>
          <rect class="cls-1" x="515.19" y="124.8" width="2.15" height="529.26"/>
          <rect class="cls-1" x="517.34" y="124.8" width="2.15" height="529.26"/>
          <rect class="cls-1" x="519.5" y="124.8" width="2.15" height="529.26"/>
          <rect class="cls-1" x="521.65" y="124.8" width="2.15" height="529.26"/>
          <rect class="cls-1" x="523.8" y="124.8" width="2.15" height="529.26"/>
          <rect class="cls-1" x="525.95" y="124.8" width="2.15" height="529.26"/>
          <rect class="cls-1" x="528.1" y="124.8" width="2.15" height="529.26"/>
          <rect class="cls-1" x="530.25" y="124.8" width="2.15" height="529.26"/>
          <rect class="cls-1" x="532.4" y="124.8" width="2.15" height="529.26"/>
          <rect class="cls-1" x="534.55" y="124.8" width="2.15" height="529.26"/>
          <rect class="cls-1" x="536.7" y="124.8" width="2.15" height="529.26"/>
          <rect class="cls-1" x="538.85" y="124.8" width="2.15" height="529.26"/>
          <rect class="cls-1" x="541" y="124.8" width="2.15" height="529.26"/>
          <rect class="cls-1" x="543.15" y="124.8" width="2.15" height="529.26"/>
          <rect class="cls-1" x="545.3" y="124.8" width="2.15" height="529.26"/>
          <rect class="cls-1" x="547.46" y="124.8" width="2.15" height="529.26"/>
          <rect class="cls-1" x="549.61" y="124.8" width="2.15" height="529.26"/>
          <rect class="cls-1" x="551.76" y="124.8" width="2.15" height="529.26"/>
          <rect class="cls-1" x="553.91" y="124.8" width="2.15" height="529.26"/>
          <rect class="cls-1" x="556.06" y="124.8" width="2.15" height="529.26"/>
          <rect class="cls-1" x="558.21" y="124.8" width="2.15" height="529.26"/>
          <rect class="cls-1" x="560.36" y="124.8" width="2.15" height="529.26"/>
          <rect class="cls-1" x="562.51" y="124.8" width="2.15" height="529.26"/>
          <rect class="cls-1" x="564.66" y="124.8" width="2.15" height="529.26"/>
          <rect class="cls-1" x="566.81" y="124.8" width="2.15" height="529.26"/>
          <rect class="cls-1" x="568.96" y="124.8" width="2.15" height="529.26"/>
          <rect class="cls-1" x="571.11" y="124.8" width="2.15" height="529.26"/>
          <rect class="cls-1" x="573.27" y="124.8" width="2.15" height="529.26"/>
          <rect class="cls-1" x="575.42" y="124.8" width="2.15" height="529.26"/>
          <rect class="cls-1" x="577.57" y="124.8" width="2.15" height="529.26"/>
          <rect class="cls-1" x="579.72" y="124.8" width="2.15" height="529.26"/>
          <rect class="cls-1" x="581.87" y="124.8" width="2.15" height="529.26"/>
          <rect class="cls-1" x="584.02" y="124.8" width="2.15" height="529.26"/>
          <rect class="cls-1" x="586.17" y="124.8" width="2.15" height="529.26"/>
          <rect class="cls-1" x="588.32" y="124.8" width="2.15" height="529.26"/>
          <rect class="cls-1" x="590.47" y="124.8" width="2.15" height="529.26"/>
          <rect class="cls-1" x="592.62" y="124.8" width="2.15" height="529.26"/>
          <rect class="cls-1" x="594.77" y="124.8" width="2.15" height="529.26"/>
          <rect class="cls-1" x="596.92" y="124.8" width="2.15" height="529.26"/>
          <rect class="cls-1" x="599.07" y="124.8" width="2.15" height="529.26"/>
          <rect class="cls-1" x="601.23" y="124.8" width="2.15" height="529.26"/>
          <rect class="cls-1" x="603.38" y="124.8" width="2.15" height="529.26"/>
          <rect class="cls-1" x="605.53" y="124.8" width="2.15" height="529.26"/>
          <rect class="cls-1" x="607.68" y="124.8" width="2.15" height="529.26"/>
          <rect class="cls-1" x="609.83" y="124.8" width="2.15" height="529.26"/>
          <rect class="cls-1" x="611.98" y="124.8" width="2.15" height="529.26"/>
          <rect class="cls-1" x="614.13" y="124.8" width="2.15" height="529.26"/>
          <rect class="cls-1" x="616.28" y="124.8" width="2.15" height="529.26"/>
          <rect class="cls-1" x="618.43" y="124.8" width="2.15" height="529.26"/>
          <rect class="cls-1" x="620.58" y="124.8" width="2.15" height="529.26"/>
          <rect class="cls-1" x="622.73" y="124.8" width="2.15" height="529.26"/>
          <rect class="cls-1" x="624.88" y="124.8" width="2.15" height="529.26"/>
          <rect class="cls-1" x="627.03" y="124.8" width="2.15" height="529.26"/>
          <rect class="cls-1" x="629.19" y="124.8" width="2.15" height="529.26"/>
          <rect class="cls-1" x="631.34" y="124.8" width="2.15" height="529.26"/>
          <rect class="cls-1" x="633.49" y="124.8" width="2.15" height="529.26"/>
          <rect class="cls-1" x="635.64" y="124.8" width="2.15" height="529.26"/>
          <rect class="cls-1" x="637.79" y="124.8" width="2.15" height="529.26"/>
          <rect class="cls-1" x="639.94" y="124.8" width="2.15" height="529.26"/>
          <rect class="cls-1" x="642.09" y="124.8" width="2.15" height="529.26"/>
          <rect class="cls-1" x="644.24" y="124.8" width="2.15" height="529.26"/>
          <rect class="cls-1" x="646.39" y="124.8" width="2.15" height="529.26"/>
          <rect class="cls-1" x="648.54" y="124.8" width="2.15" height="529.26"/>
          <rect class="cls-1" x="650.69" y="124.8" width="2.15" height="529.26"/>
          <rect class="cls-1" x="652.84" y="124.8" width="2.15" height="529.26"/>
          <rect class="cls-1" x="654.99" y="124.8" width="2.15" height="529.26"/>
          <rect class="cls-1" x="657.15" y="124.8" width="2.15" height="529.26"/>
          <rect class="cls-1" x="659.3" y="124.8" width="2.15" height="529.26"/>
          <rect class="cls-1" x="661.45" y="124.8" width="2.15" height="529.26"/>
          <rect class="cls-1" x="663.6" y="124.8" width="2.15" height="529.26"/>
          <rect class="cls-1" x="665.75" y="124.8" width="2.15" height="529.26"/>
          <rect class="cls-1" x="667.9" y="124.8" width="2.15" height="529.26"/>
          <rect class="cls-1" x="670.05" y="124.8" width="2.15" height="529.26"/>
          <rect class="cls-1" x="672.2" y="124.8" width="2.15" height="529.26"/>
          <rect class="cls-1" x="674.35" y="124.8" width="2.15" height="529.26"/>
          <rect class="cls-1" x="676.5" y="124.8" width="2.15" height="529.26"/>
          <rect class="cls-1" x="678.65" y="124.8" width="2.15" height="529.26"/>
          <rect class="cls-1" x="680.8" y="124.8" width="2.15" height="529.26"/>
          <rect class="cls-1" x="682.95" y="124.8" width="2.15" height="529.26"/>
          <rect class="cls-1" x="685.11" y="124.8" width="2.15" height="529.26"/>
          <rect class="cls-1" x="687.26" y="124.8" width="2.15" height="529.26"/>
          <rect class="cls-1" x="689.41" y="124.8" width="2.15" height="529.26"/>
          <rect class="cls-1" x="691.56" y="124.8" width="2.15" height="529.26"/>
          <rect class="cls-1" x="693.71" y="124.8" width="2.15" height="529.26"/>
          <rect class="cls-1" x="695.86" y="124.8" width="2.15" height="529.26"/>
          <rect class="cls-1" x="698.01" y="124.8" width="2.15" height="529.26"/>
          <rect class="cls-1" x="700.16" y="124.8" width="2.15" height="529.26"/>
          <rect class="cls-1" x="702.31" y="124.8" width="2.15" height="529.26"/>
          <rect class="cls-1" x="704.46" y="124.8" width="2.15" height="529.26"/>
          <rect class="cls-1" x="706.61" y="124.8" width="2.15" height="529.26"/>
          <rect class="cls-1" x="708.76" y="124.8" width="2.15" height="529.26"/>
          <rect class="cls-1" x="710.92" y="124.8" width="2.15" height="529.26"/>
          <rect class="cls-1" x="713.07" y="124.8" width="2.15" height="529.26"/>
          <rect class="cls-1" x="715.22" y="124.8" width="2.15" height="529.26"/>
          <rect class="cls-1" x="717.37" y="124.8" width="2.15" height="529.26"/>
          <rect class="cls-1" x="719.52" y="124.8" width="2.15" height="529.26"/>
          <rect class="cls-1" x="721.67" y="124.8" width="2.15" height="529.26"/>
          <rect class="cls-1" x="723.82" y="124.8" width="2.15" height="529.26"/>
          <rect class="cls-1" x="725.97" y="124.8" width="2.15" height="529.26"/>
          <rect class="cls-1" x="728.12" y="124.8" width="2.15" height="529.26"/>
          <rect class="cls-1" x="730.27" y="124.8" width="2.15" height="529.26"/>
          <rect class="cls-1" x="732.42" y="124.8" width="2.15" height="529.26"/>
          <rect class="cls-1" x="734.57" y="124.8" width="2.15" height="529.26"/>
          <rect class="cls-1" x="736.72" y="124.8" width="2.15" height="529.26"/>
          <rect class="cls-1" x="738.88" y="124.8" width="2.15" height="529.26"/>
          <rect class="cls-1" x="741.03" y="124.8" width="2.15" height="529.26"/>
          <rect class="cls-1" x="743.18" y="124.8" width="2.15" height="529.26"/>
          <rect class="cls-1" x="745.33" y="124.8" width="2.15" height="529.26"/>
          <rect class="cls-1" x="747.48" y="124.8" width="2.15" height="529.26"/>
          <rect class="cls-1" x="749.63" y="124.8" width="2.15" height="529.26"/>
          <rect class="cls-1" x="751.78" y="124.8" width="2.15" height="529.26"/>
          <rect class="cls-1" x="753.93" y="124.8" width="2.15" height="529.26"/>
          <rect class="cls-1" x="756.08" y="124.8" width="2.15" height="529.26"/>
          <rect class="cls-1" x="758.23" y="124.8" width="2.15" height="529.26"/>
          <rect class="cls-1" x="760.38" y="124.8" width="2.15" height="529.26"/>
          <rect class="cls-1" x="762.53" y="124.8" width="2.15" height="529.26"/>
          <rect class="cls-1" x="764.68" y="124.8" width="2.15" height="529.26"/>
          <rect class="cls-1" x="766.84" y="124.8" width="2.15" height="529.26"/>
          <rect class="cls-1" x="768.99" y="124.8" width="2.15" height="529.26"/>
          <rect class="cls-1" x="771.14" y="124.8" width="2.15" height="529.26"/>
          <rect class="cls-1" x="773.29" y="124.8" width="2.15" height="529.26"/>
          <rect class="cls-1" x="775.44" y="124.8" width="2.15" height="529.26"/>
          <rect class="cls-1" x="777.59" y="124.8" width="2.15" height="529.26"/>
          <rect class="cls-1" x="779.74" y="124.8" width="2.15" height="529.26"/>
          <rect class="cls-1" x="781.89" y="124.8" width="2.15" height="529.26"/>
          <rect class="cls-1" x="784.04" y="124.8" width="2.15" height="529.26"/>
        </g>
      </g>
      <g>
        <path class="cls-1" d="M260.35,588.48c-6.79,5.78-12.91,12.36-19.23,18.67-33.67,33.26-67.33,66.53-100.86,99.92-1.53,1.51-2.86,3.09-4.13,4.67l-24.95,24.72c-1.93,1.45-3.66,3.16-5.12,5.06-4.59,5.59-7.32,12.75-7.32,20.44,0,18.01,14.84,32.67,33.07,32.67,8.52,0,16.3-3.22,22.16-8.48l2.26-2.24,34.53-34.12c39.65-38.13,79.11-76.39,117.76-115.5,1.6-1.64,2.99-3.29,4.13-5.06l.07-.07c8.05-12.42,5.12-28-5.79-39.11-12.91-13.08-32-13.94-46.57-1.58Z"/>
        <g class="cls-4">
          <rect class="cls-1" x="98.74" y="576.12" width="2.84" height="218.51"/>
          <rect class="cls-1" x="101.58" y="576.12" width="2.84" height="218.51"/>
          <rect class="cls-1" x="104.42" y="576.12" width="2.84" height="218.51"/>
          <rect class="cls-1" x="107.26" y="576.12" width="2.84" height="218.51"/>
          <rect class="cls-1" x="110.1" y="576.12" width="2.84" height="218.51"/>
          <rect class="cls-1" x="112.93" y="576.12" width="2.84" height="218.51"/>
          <rect class="cls-1" x="115.77" y="576.12" width="2.84" height="218.51"/>
          <rect class="cls-1" x="118.61" y="576.12" width="2.84" height="218.51"/>
          <rect class="cls-1" x="121.45" y="576.12" width="2.84" height="218.51"/>
          <rect class="cls-1" x="124.29" y="576.12" width="2.84" height="218.51"/>
          <rect class="cls-1" x="127.13" y="576.12" width="2.84" height="218.51"/>
          <rect class="cls-1" x="129.96" y="576.12" width="2.84" height="218.51"/>
          <rect class="cls-1" x="132.8" y="576.12" width="2.84" height="218.51"/>
          <rect class="cls-1" x="135.64" y="576.12" width="2.84" height="218.51"/>
          <rect class="cls-1" x="138.48" y="576.12" width="2.84" height="218.51"/>
          <rect class="cls-1" x="141.32" y="576.12" width="2.84" height="218.51"/>
          <rect class="cls-1" x="144.16" y="576.12" width="2.84" height="218.51"/>
          <rect class="cls-1" x="146.99" y="576.12" width="2.84" height="218.51"/>
          <rect class="cls-1" x="149.83" y="576.12" width="2.84" height="218.51"/>
          <rect class="cls-1" x="152.67" y="576.12" width="2.84" height="218.51"/>
          <rect class="cls-1" x="155.51" y="576.12" width="2.84" height="218.51"/>
          <rect class="cls-1" x="158.35" y="576.12" width="2.84" height="218.51"/>
          <rect class="cls-1" x="161.19" y="576.12" width="2.84" height="218.51"/>
          <rect class="cls-1" x="164.02" y="576.12" width="2.84" height="218.51"/>
          <rect class="cls-1" x="166.86" y="576.12" width="2.84" height="218.51"/>
          <rect class="cls-1" x="169.7" y="576.12" width="2.84" height="218.51"/>
          <rect class="cls-1" x="172.54" y="576.12" width="2.84" height="218.51"/>
          <rect class="cls-1" x="175.38" y="576.12" width="2.84" height="218.51"/>
          <rect class="cls-1" x="178.22" y="576.12" width="2.84" height="218.51"/>
          <rect class="cls-1" x="181.06" y="576.12" width="2.84" height="218.51"/>
          <rect class="cls-1" x="183.89" y="576.12" width="2.84" height="218.51"/>
          <rect class="cls-1" x="186.73" y="576.12" width="2.84" height="218.51"/>
          <rect class="cls-1" x="189.57" y="576.12" width="2.84" height="218.51"/>
          <rect class="cls-1" x="192.41" y="576.12" width="2.84" height="218.51"/>
          <rect class="cls-1" x="195.25" y="576.12" width="2.84" height="218.51"/>
          <rect class="cls-1" x="198.09" y="576.12" width="2.84" height="218.51"/>
          <rect class="cls-1" x="200.92" y="576.12" width="2.84" height="218.51"/>
          <rect class="cls-1" x="203.76" y="576.12" width="2.84" height="218.51"/>
          <rect class="cls-1" x="206.6" y="576.12" width="2.84" height="218.51"/>
          <rect class="cls-1" x="209.44" y="576.12" width="2.84" height="218.51"/>
          <rect class="cls-1" x="212.28" y="576.12" width="2.84" height="218.51"/>
          <rect class="cls-1" x="215.12" y="576.12" width="2.84" height="218.51"/>
          <rect class="cls-1" x="217.95" y="576.12" width="2.84" height="218.51"/>
          <rect class="cls-1" x="220.79" y="576.12" width="2.84" height="218.51"/>
          <rect class="cls-1" x="223.63" y="576.12" width="2.84" height="218.51"/>
          <rect class="cls-1" x="226.47" y="576.12" width="2.84" height="218.51"/>
          <rect class="cls-1" x="229.31" y="576.12" width="2.84" height="218.51"/>
          <rect class="cls-1" x="232.15" y="576.12" width="2.84" height="218.51"/>
          <rect class="cls-1" x="234.99" y="576.12" width="2.84" height="218.51"/>
          <rect class="cls-1" x="237.82" y="576.12" width="2.84" height="218.51"/>
          <rect class="cls-1" x="240.66" y="576.12" width="2.84" height="218.51"/>
          <rect class="cls-1" x="243.5" y="576.12" width="2.84" height="218.51"/>
          <rect class="cls-1" x="246.34" y="576.12" width="2.84" height="218.51"/>
          <rect class="cls-1" x="249.18" y="576.12" width="2.84" height="218.51"/>
          <rect class="cls-1" x="252.02" y="576.12" width="2.84" height="218.51"/>
          <rect class="cls-1" x="254.85" y="576.12" width="2.84" height="218.51"/>
          <rect class="cls-1" x="257.69" y="576.12" width="2.84" height="218.51"/>
          <rect class="cls-1" x="260.53" y="576.12" width="2.84" height="218.51"/>
          <rect class="cls-1" x="263.37" y="576.12" width="2.84" height="218.51"/>
          <rect class="cls-1" x="266.21" y="576.12" width="2.84" height="218.51"/>
          <rect class="cls-1" x="269.05" y="576.12" width="2.84" height="218.51"/>
          <rect class="cls-1" x="271.88" y="576.12" width="2.84" height="218.51"/>
          <rect class="cls-1" x="274.72" y="576.12" width="2.84" height="218.51"/>
          <rect class="cls-1" x="277.56" y="576.12" width="2.84" height="218.51"/>
          <rect class="cls-1" x="280.4" y="576.12" width="2.84" height="218.51"/>
          <rect class="cls-1" x="283.24" y="576.12" width="2.84" height="218.51"/>
          <rect class="cls-1" x="286.08" y="576.12" width="2.84" height="218.51"/>
          <rect class="cls-1" x="288.91" y="576.12" width="2.84" height="218.51"/>
          <rect class="cls-1" x="291.75" y="576.12" width="2.84" height="218.51"/>
          <rect class="cls-1" x="294.59" y="576.12" width="2.84" height="218.51"/>
          <rect class="cls-1" x="297.43" y="576.12" width="2.84" height="218.51"/>
          <rect class="cls-1" x="300.27" y="576.12" width="2.84" height="218.51"/>
          <rect class="cls-1" x="303.11" y="576.12" width="2.84" height="218.51"/>
          <rect class="cls-1" x="305.95" y="576.12" width="2.84" height="218.51"/>
          <rect class="cls-1" x="308.78" y="576.12" width="2.84" height="218.51"/>
          <rect class="cls-1" x="311.62" y="576.12" width="2.84" height="218.51"/>
          <rect class="cls-1" x="314.46" y="576.12" width="2.84" height="218.51"/>
          <rect class="cls-1" x="317.3" y="576.12" width="3.46" height="218.51"/>
        </g>
      </g>
      <g>
        <path class="cls-1" d="M645.41,704.87c-152.16-150.41-304.72-300.49-457.15-450.57-41.12-40.49-82.17-80.92-123.29-121.29-11.84-11.7-25.08-20.05-42.51-12.95C5.5,126.9-.56,140.45.04,157.8c.33,8.15.07,16.37.07,24.59.13,143.24.33,286.49.07,429.73,0,17.16,4.26,31.09,21.09,38.52,17.3,7.63,30.74.26,42.71-11.57,9.31-9.14,18.63-18.21,27.94-27.41,28.74-28.46,57.95-56.53,86.09-85.66,14.04-14.53,12.57-34.84-1.26-47.53-12.71-11.7-32.53-11.31-46.84,1.45-9.18,8.28-17.7,17.29-26.61,25.83-10.78,10.39-21.69,20.71-33.67,32.01V236.69c1.46-.92,2.93-1.84,4.32-2.76,7.12,8.02,13.77,16.5,21.36,23.99,139.39,137.19,278.84,274.32,418.29,411.45,28.08,27.54,56.15,55.09,84.3,82.44,6.05,6.05,14.5,9.73,23.75,9.73,18.56,0,33.6-14.86,33.6-33.2,0-9.14-3.73-17.42-9.85-23.47Z"/>
        <g class="cls-3">
          <rect class="cls-1" x="-.56" y="112.97" width=".56" height="648.57"/>
          <rect class="cls-1" x="0" y="112.97" width="3.21" height="648.57"/>
          <rect class="cls-1" x="3.21" y="112.97" width="3.21" height="648.57"/>
          <rect class="cls-1" x="6.42" y="112.97" width="3.21" height="648.57"/>
          <rect class="cls-1" x="9.64" y="112.97" width="3.21" height="648.57"/>
          <rect class="cls-1" x="12.85" y="112.97" width="3.21" height="648.57"/>
          <rect class="cls-1" x="16.06" y="112.97" width="3.21" height="648.57"/>
          <rect class="cls-1" x="19.27" y="112.97" width="3.21" height="648.57"/>
          <rect class="cls-1" x="22.48" y="112.97" width="3.21" height="648.57"/>
          <rect class="cls-1" x="25.7" y="112.97" width="3.21" height="648.57"/>
          <rect class="cls-1" x="28.91" y="112.97" width="3.21" height="648.57"/>
          <rect class="cls-1" x="32.12" y="112.97" width="3.21" height="648.57"/>
          <rect class="cls-1" x="35.33" y="112.97" width="3.21" height="648.57"/>
          <rect class="cls-1" x="38.54" y="112.97" width="3.21" height="648.57"/>
          <rect class="cls-1" x="41.76" y="112.97" width="3.21" height="648.57"/>
          <rect class="cls-1" x="44.97" y="112.97" width="3.21" height="648.57"/>
          <rect class="cls-1" x="48.18" y="112.97" width="3.21" height="648.57"/>
          <rect class="cls-1" x="51.39" y="112.97" width="3.21" height="648.57"/>
          <rect class="cls-1" x="54.6" y="112.97" width="3.21" height="648.57"/>
          <rect class="cls-1" x="57.82" y="112.97" width="3.21" height="648.57"/>
          <rect class="cls-1" x="61.03" y="112.97" width="3.21" height="648.57"/>
          <rect class="cls-1" x="64.24" y="112.97" width="3.21" height="648.57"/>
          <rect class="cls-1" x="67.45" y="112.97" width="3.21" height="648.57"/>
          <rect class="cls-1" x="70.66" y="112.97" width="3.21" height="648.57"/>
          <rect class="cls-1" x="73.88" y="112.97" width="3.21" height="648.57"/>
          <rect class="cls-1" x="77.09" y="112.97" width="3.21" height="648.57"/>
          <rect class="cls-1" x="80.3" y="112.97" width="3.21" height="648.57"/>
          <rect class="cls-1" x="83.51" y="112.97" width="3.21" height="648.57"/>
          <rect class="cls-1" x="86.73" y="112.97" width="3.21" height="648.57"/>
          <rect class="cls-1" x="89.94" y="112.97" width="3.21" height="648.57"/>
          <rect class="cls-1" x="93.15" y="112.97" width="3.21" height="648.57"/>
          <rect class="cls-1" x="96.36" y="112.97" width="3.21" height="648.57"/>
          <rect class="cls-1" x="99.57" y="112.97" width="3.21" height="648.57"/>
          <rect class="cls-1" x="102.79" y="112.97" width="3.21" height="648.57"/>
          <rect class="cls-1" x="106" y="112.97" width="3.21" height="648.57"/>
          <rect class="cls-1" x="109.21" y="112.97" width="3.21" height="648.57"/>
          <rect class="cls-1" x="112.42" y="112.97" width="3.21" height="648.57"/>
          <rect class="cls-1" x="115.63" y="112.97" width="3.21" height="648.57"/>
          <rect class="cls-1" x="118.85" y="112.97" width="3.21" height="648.57"/>
          <rect class="cls-1" x="122.06" y="112.97" width="3.21" height="648.57"/>
          <rect class="cls-1" x="125.27" y="112.97" width="3.21" height="648.57"/>
          <rect class="cls-1" x="128.48" y="112.97" width="3.21" height="648.57"/>
          <rect class="cls-1" x="131.69" y="112.97" width="3.21" height="648.57"/>
          <rect class="cls-1" x="134.91" y="112.97" width="3.21" height="648.57"/>
          <rect class="cls-1" x="138.12" y="112.97" width="3.21" height="648.57"/>
          <rect class="cls-1" x="141.33" y="112.97" width="3.21" height="648.57"/>
          <rect class="cls-1" x="144.54" y="112.97" width="3.21" height="648.57"/>
          <rect class="cls-1" x="147.75" y="112.97" width="3.21" height="648.57"/>
          <rect class="cls-1" x="150.97" y="112.97" width="3.21" height="648.57"/>
          <rect class="cls-1" x="154.18" y="112.97" width="3.21" height="648.57"/>
          <rect class="cls-1" x="157.39" y="112.97" width="3.21" height="648.57"/>
          <rect class="cls-1" x="160.6" y="112.97" width="3.21" height="648.57"/>
          <rect class="cls-1" x="163.81" y="112.97" width="3.21" height="648.57"/>
          <rect class="cls-1" x="167.03" y="112.97" width="3.21" height="648.57"/>
          <rect class="cls-1" x="170.24" y="112.97" width="3.21" height="648.57"/>
          <rect class="cls-1" x="173.45" y="112.97" width="3.21" height="648.57"/>
          <rect class="cls-1" x="176.66" y="112.97" width="3.21" height="648.57"/>
          <rect class="cls-1" x="179.87" y="112.97" width="3.21" height="648.57"/>
          <rect class="cls-1" x="183.09" y="112.97" width="3.21" height="648.57"/>
          <rect class="cls-1" x="186.3" y="112.97" width="3.21" height="648.57"/>
          <rect class="cls-1" x="189.51" y="112.97" width="3.21" height="648.57"/>
          <rect class="cls-1" x="192.72" y="112.97" width="3.21" height="648.57"/>
          <rect class="cls-1" x="195.93" y="112.97" width="3.21" height="648.57"/>
          <rect class="cls-1" x="199.15" y="112.97" width="3.21" height="648.57"/>
          <rect class="cls-1" x="202.36" y="112.97" width="3.21" height="648.57"/>
          <rect class="cls-1" x="205.57" y="112.97" width="3.21" height="648.57"/>
          <rect class="cls-1" x="208.78" y="112.97" width="3.21" height="648.57"/>
          <rect class="cls-1" x="211.99" y="112.97" width="3.21" height="648.57"/>
          <rect class="cls-1" x="215.21" y="112.97" width="3.21" height="648.57"/>
          <rect class="cls-1" x="218.42" y="112.97" width="3.21" height="648.57"/>
          <rect class="cls-1" x="221.63" y="112.97" width="3.21" height="648.57"/>
          <rect class="cls-1" x="224.84" y="112.97" width="3.21" height="648.57"/>
          <rect class="cls-1" x="228.05" y="112.97" width="3.21" height="648.57"/>
          <rect class="cls-1" x="231.27" y="112.97" width="3.21" height="648.57"/>
          <rect class="cls-1" x="234.48" y="112.97" width="3.21" height="648.57"/>
          <rect class="cls-1" x="237.69" y="112.97" width="3.21" height="648.57"/>
          <rect class="cls-1" x="240.9" y="112.97" width="3.21" height="648.57"/>
          <rect class="cls-1" x="244.11" y="112.97" width="3.21" height="648.57"/>
          <rect class="cls-1" x="247.33" y="112.97" width="3.21" height="648.57"/>
          <rect class="cls-1" x="250.54" y="112.97" width="3.21" height="648.57"/>
          <rect class="cls-1" x="253.75" y="112.97" width="3.21" height="648.57"/>
          <rect class="cls-1" x="256.96" y="112.97" width="3.21" height="648.57"/>
          <rect class="cls-1" x="260.18" y="112.97" width="3.21" height="648.57"/>
          <rect class="cls-1" x="263.39" y="112.97" width="3.21" height="648.57"/>
          <rect class="cls-1" x="266.6" y="112.97" width="3.21" height="648.57"/>
          <rect class="cls-1" x="269.81" y="112.97" width="3.21" height="648.57"/>
          <rect class="cls-1" x="273.02" y="112.97" width="3.21" height="648.57"/>
          <rect class="cls-1" x="276.24" y="112.97" width="3.21" height="648.57"/>
          <rect class="cls-1" x="279.45" y="112.97" width="3.21" height="648.57"/>
          <rect class="cls-1" x="282.66" y="112.97" width="3.21" height="648.57"/>
          <rect class="cls-1" x="285.87" y="112.97" width="3.21" height="648.57"/>
          <rect class="cls-1" x="289.08" y="112.97" width="3.21" height="648.57"/>
          <rect class="cls-1" x="292.3" y="112.97" width="3.21" height="648.57"/>
          <rect class="cls-1" x="295.51" y="112.97" width="3.21" height="648.57"/>
          <rect class="cls-1" x="298.72" y="112.97" width="3.21" height="648.57"/>
          <rect class="cls-1" x="301.93" y="112.97" width="3.21" height="648.57"/>
          <rect class="cls-1" x="305.14" y="112.97" width="3.21" height="648.57"/>
          <rect class="cls-1" x="308.36" y="112.97" width="3.21" height="648.57"/>
          <rect class="cls-1" x="311.57" y="112.97" width="3.21" height="648.57"/>
          <rect class="cls-1" x="314.78" y="112.97" width="3.21" height="648.57"/>
          <rect class="cls-1" x="317.99" y="112.97" width="3.21" height="648.57"/>
          <rect class="cls-1" x="321.2" y="112.97" width="3.21" height="648.57"/>
          <rect class="cls-1" x="324.42" y="112.97" width="3.21" height="648.57"/>
          <rect class="cls-1" x="327.63" y="112.97" width="3.21" height="648.57"/>
          <rect class="cls-1" x="330.84" y="112.97" width="3.21" height="648.57"/>
          <rect class="cls-1" x="334.05" y="112.97" width="3.21" height="648.57"/>
          <rect class="cls-1" x="337.26" y="112.97" width="3.21" height="648.57"/>
          <rect class="cls-1" x="340.48" y="112.97" width="3.21" height="648.57"/>
          <rect class="cls-1" x="343.69" y="112.97" width="3.21" height="648.57"/>
          <rect class="cls-1" x="346.9" y="112.97" width="3.21" height="648.57"/>
          <rect class="cls-1" x="350.11" y="112.97" width="3.21" height="648.57"/>
          <rect class="cls-1" x="353.32" y="112.97" width="3.21" height="648.57"/>
          <rect class="cls-1" x="356.54" y="112.97" width="3.21" height="648.57"/>
          <rect class="cls-1" x="359.75" y="112.97" width="3.21" height="648.57"/>
          <rect class="cls-1" x="362.96" y="112.97" width="3.21" height="648.57"/>
          <rect class="cls-1" x="366.17" y="112.97" width="3.21" height="648.57"/>
          <rect class="cls-1" x="369.38" y="112.97" width="3.21" height="648.57"/>
          <rect class="cls-1" x="372.6" y="112.97" width="3.21" height="648.57"/>
          <rect class="cls-1" x="375.81" y="112.97" width="3.21" height="648.57"/>
          <rect class="cls-1" x="379.02" y="112.97" width="3.21" height="648.57"/>
          <rect class="cls-1" x="382.23" y="112.97" width="3.21" height="648.57"/>
          <rect class="cls-1" x="385.44" y="112.97" width="3.21" height="648.57"/>
          <rect class="cls-1" x="388.66" y="112.97" width="3.21" height="648.57"/>
          <rect class="cls-1" x="391.87" y="112.97" width="3.21" height="648.57"/>
          <rect class="cls-1" x="395.08" y="112.97" width="3.21" height="648.57"/>
          <rect class="cls-1" x="398.29" y="112.97" width="3.21" height="648.57"/>
          <rect class="cls-1" x="401.5" y="112.97" width="3.21" height="648.57"/>
          <rect class="cls-1" x="404.72" y="112.97" width="3.21" height="648.57"/>
          <rect class="cls-1" x="407.93" y="112.97" width="3.21" height="648.57"/>
          <rect class="cls-1" x="411.14" y="112.97" width="3.21" height="648.57"/>
          <rect class="cls-1" x="414.35" y="112.97" width="3.21" height="648.57"/>
          <rect class="cls-1" x="417.56" y="112.97" width="3.21" height="648.57"/>
          <rect class="cls-1" x="420.78" y="112.97" width="3.21" height="648.57"/>
          <rect class="cls-1" x="423.99" y="112.97" width="3.21" height="648.57"/>
          <rect class="cls-1" x="427.2" y="112.97" width="3.21" height="648.57"/>
          <rect class="cls-1" x="430.41" y="112.97" width="3.21" height="648.57"/>
          <rect class="cls-1" x="433.63" y="112.97" width="3.21" height="648.57"/>
          <rect class="cls-1" x="436.84" y="112.97" width="3.21" height="648.57"/>
          <rect class="cls-1" x="440.05" y="112.97" width="3.21" height="648.57"/>
          <rect class="cls-1" x="443.26" y="112.97" width="3.21" height="648.57"/>
          <rect class="cls-1" x="446.47" y="112.97" width="3.21" height="648.57"/>
          <rect class="cls-1" x="449.69" y="112.97" width="3.21" height="648.57"/>
          <rect class="cls-1" x="452.9" y="112.97" width="3.21" height="648.57"/>
          <rect class="cls-1" x="456.11" y="112.97" width="3.21" height="648.57"/>
          <rect class="cls-1" x="459.32" y="112.97" width="3.21" height="648.57"/>
          <rect class="cls-1" x="462.53" y="112.97" width="3.21" height="648.57"/>
          <rect class="cls-1" x="465.75" y="112.97" width="3.21" height="648.57"/>
          <rect class="cls-1" x="468.96" y="112.97" width="3.21" height="648.57"/>
          <rect class="cls-1" x="472.17" y="112.97" width="3.21" height="648.57"/>
          <rect class="cls-1" x="475.38" y="112.97" width="3.21" height="648.57"/>
          <rect class="cls-1" x="478.59" y="112.97" width="3.21" height="648.57"/>
          <rect class="cls-1" x="481.81" y="112.97" width="3.21" height="648.57"/>
          <rect class="cls-1" x="485.02" y="112.97" width="3.21" height="648.57"/>
          <rect class="cls-1" x="488.23" y="112.97" width="3.21" height="648.57"/>
          <rect class="cls-1" x="491.44" y="112.97" width="3.21" height="648.57"/>
          <rect class="cls-1" x="494.65" y="112.97" width="3.21" height="648.57"/>
          <rect class="cls-1" x="497.87" y="112.97" width="3.21" height="648.57"/>
          <rect class="cls-1" x="501.08" y="112.97" width="3.21" height="648.57"/>
          <rect class="cls-1" x="504.29" y="112.97" width="3.21" height="648.57"/>
          <rect class="cls-1" x="507.5" y="112.97" width="3.21" height="648.57"/>
          <rect class="cls-1" x="510.71" y="112.97" width="3.21" height="648.57"/>
          <rect class="cls-1" x="513.93" y="112.97" width="3.21" height="648.57"/>
          <rect class="cls-1" x="517.14" y="112.97" width="3.21" height="648.57"/>
          <rect class="cls-1" x="520.35" y="112.97" width="3.21" height="648.57"/>
          <rect class="cls-1" x="523.56" y="112.97" width="3.21" height="648.57"/>
          <rect class="cls-1" x="526.77" y="112.97" width="3.21" height="648.57"/>
          <rect class="cls-1" x="529.99" y="112.97" width="3.21" height="648.57"/>
          <rect class="cls-1" x="533.2" y="112.97" width="3.21" height="648.57"/>
          <rect class="cls-1" x="536.41" y="112.97" width="3.21" height="648.57"/>
          <rect class="cls-1" x="539.62" y="112.97" width="3.21" height="648.57"/>
          <rect class="cls-1" x="542.83" y="112.97" width="3.21" height="648.57"/>
          <rect class="cls-1" x="546.05" y="112.97" width="3.21" height="648.57"/>
          <rect class="cls-1" x="549.26" y="112.97" width="3.21" height="648.57"/>
          <rect class="cls-1" x="552.47" y="112.97" width="3.21" height="648.57"/>
          <rect class="cls-1" x="555.68" y="112.97" width="3.21" height="648.57"/>
          <rect class="cls-1" x="558.89" y="112.97" width="3.21" height="648.57"/>
          <rect class="cls-1" x="562.11" y="112.97" width="3.21" height="648.57"/>
          <rect class="cls-1" x="565.32" y="112.97" width="3.21" height="648.57"/>
          <rect class="cls-1" x="568.53" y="112.97" width="3.21" height="648.57"/>
          <rect class="cls-1" x="571.74" y="112.97" width="3.21" height="648.57"/>
          <rect class="cls-1" x="574.95" y="112.97" width="3.21" height="648.57"/>
          <rect class="cls-1" x="578.17" y="112.97" width="3.21" height="648.57"/>
          <rect class="cls-1" x="581.38" y="112.97" width="3.21" height="648.57"/>
          <rect class="cls-1" x="584.59" y="112.97" width="3.21" height="648.57"/>
          <rect class="cls-1" x="587.8" y="112.97" width="3.21" height="648.57"/>
          <rect class="cls-1" x="591.02" y="112.97" width="3.21" height="648.57"/>
          <rect class="cls-1" x="594.23" y="112.97" width="3.21" height="648.57"/>
          <rect class="cls-1" x="597.44" y="112.97" width="3.21" height="648.57"/>
          <rect class="cls-1" x="600.65" y="112.97" width="3.21" height="648.57"/>
          <rect class="cls-1" x="603.86" y="112.97" width="3.21" height="648.57"/>
          <rect class="cls-1" x="607.08" y="112.97" width="3.21" height="648.57"/>
          <rect class="cls-1" x="610.29" y="112.97" width="3.21" height="648.57"/>
          <rect class="cls-1" x="613.5" y="112.97" width="3.21" height="648.57"/>
          <rect class="cls-1" x="616.71" y="112.97" width="3.21" height="648.57"/>
          <rect class="cls-1" x="619.92" y="112.97" width="3.21" height="648.57"/>
          <rect class="cls-1" x="623.14" y="112.97" width="3.21" height="648.57"/>
          <rect class="cls-1" x="626.35" y="112.97" width="3.21" height="648.57"/>
          <rect class="cls-1" x="629.56" y="112.97" width="3.21" height="648.57"/>
          <rect class="cls-1" x="632.77" y="112.97" width="3.21" height="648.57"/>
          <rect class="cls-1" x="635.98" y="112.97" width="3.21" height="648.57"/>
          <rect class="cls-1" x="639.2" y="112.97" width="3.21" height="648.57"/>
          <rect class="cls-1" x="642.41" y="112.97" width="3.21" height="648.57"/>
          <rect class="cls-1" x="645.62" y="112.97" width="3.21" height="648.57"/>
          <rect class="cls-1" x="648.83" y="112.97" width="3.21" height="648.57"/>
          <rect class="cls-1" x="652.04" y="112.97" width="3.21" height="648.57"/>
        </g>
      </g>
    </g>
  </g>
</svg>